<mxfile host="app.diagrams.net" modified="2023-07-18T17:20:02.330Z" agent="Mozilla/5.0 (X11; Linux x86_64) AppleWebKit/537.36 (KHTML, like Gecko) Chrome/114.0.0.0 Safari/537.36 OPR/100.0.0.0" etag="CbrOCRU0_TW41pAquJQD" version="21.6.2" type="github">
  <diagram name="Page-1" id="bsUI4YP8fgeHjtX5uUTM">
    <mxGraphModel dx="872" dy="475" grid="1" gridSize="10" guides="1" tooltips="1" connect="1" arrows="1" fold="1" page="1" pageScale="1" pageWidth="850" pageHeight="1100" math="0" shadow="0">
      <root>
        <mxCell id="0" />
        <mxCell id="1" parent="0" />
        <mxCell id="zdg1TJ1jMhGh96InrAwN-4" style="edgeStyle=orthogonalEdgeStyle;rounded=0;orthogonalLoop=1;jettySize=auto;html=1;exitX=1;exitY=0.5;exitDx=0;exitDy=0;" parent="1" source="zdg1TJ1jMhGh96InrAwN-1" edge="1">
          <mxGeometry relative="1" as="geometry">
            <mxPoint x="200" y="290" as="targetPoint" />
          </mxGeometry>
        </mxCell>
        <mxCell id="zdg1TJ1jMhGh96InrAwN-1" value="VOTER - 0" style="rounded=1;whiteSpace=wrap;html=1;" parent="1" vertex="1">
          <mxGeometry x="50" y="260" width="120" height="60" as="geometry" />
        </mxCell>
        <mxCell id="zdg1TJ1jMhGh96InrAwN-5" style="edgeStyle=orthogonalEdgeStyle;rounded=0;orthogonalLoop=1;jettySize=auto;html=1;exitX=1;exitY=0.5;exitDx=0;exitDy=0;" parent="1" source="zdg1TJ1jMhGh96InrAwN-2" edge="1">
          <mxGeometry relative="1" as="geometry">
            <mxPoint x="200" y="370" as="targetPoint" />
          </mxGeometry>
        </mxCell>
        <mxCell id="zdg1TJ1jMhGh96InrAwN-2" value="VOTER - 1" style="rounded=1;whiteSpace=wrap;html=1;" parent="1" vertex="1">
          <mxGeometry x="50" y="340" width="120" height="60" as="geometry" />
        </mxCell>
        <mxCell id="zdg1TJ1jMhGh96InrAwN-6" style="edgeStyle=orthogonalEdgeStyle;rounded=0;orthogonalLoop=1;jettySize=auto;html=1;exitX=1;exitY=0.5;exitDx=0;exitDy=0;" parent="1" source="zdg1TJ1jMhGh96InrAwN-3" edge="1">
          <mxGeometry relative="1" as="geometry">
            <mxPoint x="200" y="450" as="targetPoint" />
          </mxGeometry>
        </mxCell>
        <mxCell id="zdg1TJ1jMhGh96InrAwN-3" value="VOTER - 2" style="rounded=1;whiteSpace=wrap;html=1;" parent="1" vertex="1">
          <mxGeometry x="50" y="420" width="120" height="60" as="geometry" />
        </mxCell>
        <mxCell id="zdg1TJ1jMhGh96InrAwN-7" value="0" style="whiteSpace=wrap;html=1;aspect=fixed;" parent="1" vertex="1">
          <mxGeometry x="200" y="265" width="50" height="50" as="geometry" />
        </mxCell>
        <mxCell id="zdg1TJ1jMhGh96InrAwN-8" value="2" style="whiteSpace=wrap;html=1;aspect=fixed;" parent="1" vertex="1">
          <mxGeometry x="250" y="265" width="50" height="50" as="geometry" />
        </mxCell>
        <mxCell id="zdg1TJ1jMhGh96InrAwN-9" value="1" style="whiteSpace=wrap;html=1;aspect=fixed;" parent="1" vertex="1">
          <mxGeometry x="300" y="265" width="50" height="50" as="geometry" />
        </mxCell>
        <mxCell id="zdg1TJ1jMhGh96InrAwN-10" value="2" style="whiteSpace=wrap;html=1;aspect=fixed;fillColor=#f8cecc;strokeColor=#b85450;" parent="1" vertex="1">
          <mxGeometry x="200" y="345" width="50" height="50" as="geometry" />
        </mxCell>
        <mxCell id="zdg1TJ1jMhGh96InrAwN-11" value="1" style="whiteSpace=wrap;html=1;aspect=fixed;fillColor=#fff2cc;strokeColor=#d6b656;" parent="1" vertex="1">
          <mxGeometry x="250" y="345" width="50" height="50" as="geometry" />
        </mxCell>
        <mxCell id="zdg1TJ1jMhGh96InrAwN-12" value="0" style="whiteSpace=wrap;html=1;aspect=fixed;" parent="1" vertex="1">
          <mxGeometry x="300" y="345" width="50" height="50" as="geometry" />
        </mxCell>
        <mxCell id="zdg1TJ1jMhGh96InrAwN-13" value="1" style="whiteSpace=wrap;html=1;aspect=fixed;" parent="1" vertex="1">
          <mxGeometry x="200" y="425" width="50" height="50" as="geometry" />
        </mxCell>
        <mxCell id="zdg1TJ1jMhGh96InrAwN-14" value="0" style="whiteSpace=wrap;html=1;aspect=fixed;" parent="1" vertex="1">
          <mxGeometry x="250" y="425" width="50" height="50" as="geometry" />
        </mxCell>
        <mxCell id="zdg1TJ1jMhGh96InrAwN-15" value="2" style="whiteSpace=wrap;html=1;aspect=fixed;" parent="1" vertex="1">
          <mxGeometry x="300" y="425" width="50" height="50" as="geometry" />
        </mxCell>
        <mxCell id="zdg1TJ1jMhGh96InrAwN-27" style="edgeStyle=orthogonalEdgeStyle;rounded=0;orthogonalLoop=1;jettySize=auto;html=1;exitX=0.5;exitY=1;exitDx=0;exitDy=0;entryX=0.5;entryY=0;entryDx=0;entryDy=0;" parent="1" source="zdg1TJ1jMhGh96InrAwN-20" target="zdg1TJ1jMhGh96InrAwN-8" edge="1">
          <mxGeometry relative="1" as="geometry" />
        </mxCell>
        <mxCell id="zdg1TJ1jMhGh96InrAwN-20" value="1" style="whiteSpace=wrap;html=1;aspect=fixed;" parent="1" vertex="1">
          <mxGeometry x="260" y="210" width="30" height="30" as="geometry" />
        </mxCell>
        <mxCell id="zdg1TJ1jMhGh96InrAwN-28" style="edgeStyle=orthogonalEdgeStyle;rounded=0;orthogonalLoop=1;jettySize=auto;html=1;exitX=0.5;exitY=1;exitDx=0;exitDy=0;entryX=0.5;entryY=0;entryDx=0;entryDy=0;" parent="1" source="zdg1TJ1jMhGh96InrAwN-21" target="zdg1TJ1jMhGh96InrAwN-7" edge="1">
          <mxGeometry relative="1" as="geometry" />
        </mxCell>
        <mxCell id="zdg1TJ1jMhGh96InrAwN-21" value="0" style="whiteSpace=wrap;html=1;aspect=fixed;" parent="1" vertex="1">
          <mxGeometry x="210" y="210" width="30" height="30" as="geometry" />
        </mxCell>
        <mxCell id="zdg1TJ1jMhGh96InrAwN-26" style="edgeStyle=orthogonalEdgeStyle;rounded=0;orthogonalLoop=1;jettySize=auto;html=1;exitX=0.5;exitY=1;exitDx=0;exitDy=0;entryX=0.5;entryY=0;entryDx=0;entryDy=0;" parent="1" source="zdg1TJ1jMhGh96InrAwN-22" target="zdg1TJ1jMhGh96InrAwN-9" edge="1">
          <mxGeometry relative="1" as="geometry" />
        </mxCell>
        <mxCell id="zdg1TJ1jMhGh96InrAwN-22" value="2" style="whiteSpace=wrap;html=1;aspect=fixed;" parent="1" vertex="1">
          <mxGeometry x="310" y="210" width="30" height="30" as="geometry" />
        </mxCell>
        <mxCell id="zdg1TJ1jMhGh96InrAwN-38" value="&lt;p style=&quot;line-height: 120%; font-size: 22px;&quot;&gt;&lt;b style=&quot;font-size: 19px;&quot;&gt;CANDIDATES&lt;/b&gt;&lt;/p&gt;" style="rounded=0;whiteSpace=wrap;html=1;" parent="1" vertex="1">
          <mxGeometry x="425" y="195" width="140" height="40" as="geometry" />
        </mxCell>
        <mxCell id="zdg1TJ1jMhGh96InrAwN-39" value="&lt;b&gt;&lt;i&gt;LUIZ&lt;/i&gt;&lt;/b&gt;" style="rounded=0;whiteSpace=wrap;html=1;" parent="1" vertex="1">
          <mxGeometry x="435" y="235" width="120" height="50" as="geometry" />
        </mxCell>
        <mxCell id="zdg1TJ1jMhGh96InrAwN-40" value="&lt;b&gt;&lt;i&gt;PEDRO&lt;/i&gt;&lt;/b&gt;" style="rounded=0;whiteSpace=wrap;html=1;" parent="1" vertex="1">
          <mxGeometry x="435" y="285" width="120" height="50" as="geometry" />
        </mxCell>
        <mxCell id="zdg1TJ1jMhGh96InrAwN-41" value="&lt;b&gt;&lt;i&gt;LUCAS&lt;/i&gt;&lt;/b&gt;" style="rounded=0;whiteSpace=wrap;html=1;" parent="1" vertex="1">
          <mxGeometry x="435" y="335" width="120" height="50" as="geometry" />
        </mxCell>
        <mxCell id="zdg1TJ1jMhGh96InrAwN-44" value="&lt;p style=&quot;line-height: 120%;&quot;&gt;&lt;b style=&quot;&quot;&gt;&lt;font style=&quot;font-size: 19px;&quot;&gt;VOTES&lt;/font&gt;&lt;/b&gt;&lt;/p&gt;" style="rounded=0;whiteSpace=wrap;html=1;" parent="1" vertex="1">
          <mxGeometry x="565" y="195" width="140" height="40" as="geometry" />
        </mxCell>
        <mxCell id="zdg1TJ1jMhGh96InrAwN-45" value="1" style="rounded=0;whiteSpace=wrap;html=1;" parent="1" vertex="1">
          <mxGeometry x="575" y="235" width="120" height="50" as="geometry" />
        </mxCell>
        <mxCell id="zdg1TJ1jMhGh96InrAwN-46" value="0" style="rounded=0;whiteSpace=wrap;html=1;" parent="1" vertex="1">
          <mxGeometry x="575" y="285" width="120" height="50" as="geometry" />
        </mxCell>
        <mxCell id="zdg1TJ1jMhGh96InrAwN-47" value="0" style="rounded=0;whiteSpace=wrap;html=1;" parent="1" vertex="1">
          <mxGeometry x="575" y="335" width="120" height="50" as="geometry" />
        </mxCell>
        <mxCell id="zdg1TJ1jMhGh96InrAwN-49" value="&lt;b&gt;FALSE&lt;/b&gt;" style="rounded=0;whiteSpace=wrap;html=1;" parent="1" vertex="1">
          <mxGeometry x="715" y="235" width="120" height="50" as="geometry" />
        </mxCell>
        <mxCell id="zdg1TJ1jMhGh96InrAwN-50" value="&lt;b&gt;FALSE&lt;/b&gt;" style="rounded=0;whiteSpace=wrap;html=1;" parent="1" vertex="1">
          <mxGeometry x="715" y="285" width="120" height="50" as="geometry" />
        </mxCell>
        <mxCell id="zdg1TJ1jMhGh96InrAwN-51" value="&lt;b&gt;TRUE&lt;/b&gt;" style="rounded=0;whiteSpace=wrap;html=1;" parent="1" vertex="1">
          <mxGeometry x="715" y="335" width="120" height="50" as="geometry" />
        </mxCell>
        <mxCell id="zdg1TJ1jMhGh96InrAwN-52" value="&lt;p style=&quot;line-height: 120%;&quot;&gt;&lt;span style=&quot;font-size: 19px;&quot;&gt;&lt;b&gt;ELIMINATED&lt;/b&gt;&lt;/span&gt;&lt;/p&gt;" style="rounded=0;whiteSpace=wrap;html=1;" parent="1" vertex="1">
          <mxGeometry x="705" y="195" width="140" height="40" as="geometry" />
        </mxCell>
        <mxCell id="zdg1TJ1jMhGh96InrAwN-58" style="edgeStyle=orthogonalEdgeStyle;rounded=0;orthogonalLoop=1;jettySize=auto;html=1;exitX=1;exitY=0.5;exitDx=0;exitDy=0;entryX=0;entryY=0.5;entryDx=0;entryDy=0;" parent="1" source="zdg1TJ1jMhGh96InrAwN-53" target="zdg1TJ1jMhGh96InrAwN-39" edge="1">
          <mxGeometry relative="1" as="geometry" />
        </mxCell>
        <mxCell id="zdg1TJ1jMhGh96InrAwN-53" value="&lt;font color=&quot;#000000&quot;&gt;&lt;i&gt;0&lt;/i&gt;&lt;/font&gt;" style="whiteSpace=wrap;html=1;aspect=fixed;fillColor=#eeeeee;strokeColor=#36393d;" parent="1" vertex="1">
          <mxGeometry x="395" y="245" width="30" height="30" as="geometry" />
        </mxCell>
        <mxCell id="zdg1TJ1jMhGh96InrAwN-59" style="edgeStyle=orthogonalEdgeStyle;rounded=0;orthogonalLoop=1;jettySize=auto;html=1;exitX=1;exitY=0.5;exitDx=0;exitDy=0;entryX=0;entryY=0.5;entryDx=0;entryDy=0;" parent="1" source="zdg1TJ1jMhGh96InrAwN-56" target="zdg1TJ1jMhGh96InrAwN-40" edge="1">
          <mxGeometry relative="1" as="geometry" />
        </mxCell>
        <mxCell id="zdg1TJ1jMhGh96InrAwN-56" value="&lt;font color=&quot;#000000&quot;&gt;&lt;i&gt;1&lt;/i&gt;&lt;/font&gt;" style="whiteSpace=wrap;html=1;aspect=fixed;fillColor=#eeeeee;strokeColor=#36393d;" parent="1" vertex="1">
          <mxGeometry x="395" y="295" width="30" height="30" as="geometry" />
        </mxCell>
        <mxCell id="zdg1TJ1jMhGh96InrAwN-60" style="edgeStyle=orthogonalEdgeStyle;rounded=0;orthogonalLoop=1;jettySize=auto;html=1;exitX=1;exitY=0.5;exitDx=0;exitDy=0;entryX=0;entryY=0.5;entryDx=0;entryDy=0;" parent="1" source="zdg1TJ1jMhGh96InrAwN-57" target="zdg1TJ1jMhGh96InrAwN-41" edge="1">
          <mxGeometry relative="1" as="geometry" />
        </mxCell>
        <mxCell id="zdg1TJ1jMhGh96InrAwN-57" value="&lt;font color=&quot;#000000&quot;&gt;2&lt;/font&gt;" style="whiteSpace=wrap;html=1;aspect=fixed;fillColor=#eeeeee;strokeColor=#36393d;" parent="1" vertex="1">
          <mxGeometry x="395" y="345" width="30" height="30" as="geometry" />
        </mxCell>
      </root>
    </mxGraphModel>
  </diagram>
</mxfile>
